<svg width="106" height="114" viewBox="0 0 106 114" fill="none" xmlns="http://www.w3.org/2000/svg">
<g clip-path="url(#clip0_4304_35626)">
<path d="M15.893 83.4621L9.9298 99.7362H5.96321L0 83.4621H1.59729C2.73536 83.4621 3.74032 84.1813 4.11302 85.2533L7.96647 96.4002L11.8 85.26C12.1727 84.1879 13.1776 83.4621 14.3157 83.4621H15.893Z" fill="#3B71FE"/>
<path d="M21.1109 86.1256V99.7362H20.5119C19.041 99.7362 17.8497 98.5443 17.8497 97.0727V83.4621H18.4487C19.9195 83.4621 21.1109 84.654 21.1109 86.1256Z" fill="#3B71FE"/>
<path d="M31.9457 98.3845L29.1238 93.3971H27.5864V97.0727C27.5864 98.5443 26.3951 99.7362 24.9243 99.7362H24.3253V83.4621H30.4283C31.6862 83.4621 32.7577 83.6819 33.6428 84.128C34.528 84.5741 35.1935 85.1668 35.6328 85.9259C36.0787 86.6783 36.2983 87.524 36.2983 88.4562C36.2983 89.5283 35.9855 90.4938 35.3666 91.3595C34.7476 92.2251 33.8225 92.8177 32.5913 93.144L36.4847 99.7429H34.2618C33.3034 99.7362 32.4182 99.2169 31.9457 98.3845ZM27.5864 90.9466H30.3151C31.2003 90.9466 31.8592 90.7335 32.2984 90.3074C32.7377 89.8812 32.9507 89.2886 32.9507 88.5228C32.9507 87.777 32.731 87.1977 32.2984 86.7849C31.8658 86.372 31.2003 86.1656 30.3151 86.1656H27.5864V90.9466Z" fill="#333333"/>
<path d="M42.5211 86.099V90.1808H47.9985C47.9985 91.6125 46.8405 92.7711 45.4096 92.7711H42.5211V97.086H46.0418C47.506 97.086 48.6973 98.278 48.6973 99.7429H39.26V83.4488H48.6973C48.6973 84.9137 47.506 86.1057 46.0418 86.1057H42.5211V86.099Z" fill="#333333"/>
<path d="M51.9451 87.2776C52.6639 86.0124 53.6555 85.0269 54.9067 84.3144C56.1579 83.6019 57.5622 83.2557 59.1129 83.2557C60.9298 83.2557 62.5205 83.7218 63.8915 84.654C65.2625 85.5863 66.2142 86.8781 66.7599 88.5228H64.4305C63.6252 88.5228 62.8932 88.1366 62.3674 87.5373C62.1012 87.231 61.7884 86.978 61.4356 86.7782C60.7634 86.392 59.9781 86.1922 59.0929 86.1922C58.1479 86.1922 57.3026 86.412 56.5639 86.8581C55.8252 87.3042 55.2528 87.9235 54.8402 88.7359C54.4275 89.5416 54.2212 90.4938 54.2212 91.5792C54.2212 92.6513 54.4275 93.5968 54.8402 94.4092C55.2528 95.2282 55.8252 95.8541 56.5639 96.3003C57.3026 96.7464 58.1412 96.9662 59.0929 96.9662C59.9781 96.9662 60.7568 96.7664 61.4356 96.3735C61.7884 96.1671 62.0945 95.9141 62.3607 95.6078C62.8932 95.0018 63.6252 94.6156 64.4305 94.6156H66.7599C66.2142 96.2803 65.2625 97.5721 63.9048 98.4977C62.5471 99.4233 60.9498 99.8827 59.1196 99.8827C57.5689 99.8827 56.1646 99.5298 54.9134 98.824C53.6622 98.1182 52.6772 97.1326 51.9517 95.8741C51.2263 94.6156 50.8669 93.184 50.8669 91.5859C50.8603 89.9744 51.2263 88.5428 51.9451 87.2776Z" fill="#333333"/>
<path d="M72.9029 98.824C71.6317 98.1115 70.6201 97.1193 69.8747 95.8542C69.1293 94.589 68.7566 93.1507 68.7566 91.5526C68.7566 89.9678 69.1293 88.5428 69.8747 87.2776C70.6201 86.0124 71.6317 85.0203 72.9029 84.3078C74.1741 83.5953 75.5717 83.2357 77.0958 83.2357C78.6332 83.2357 80.0374 83.5953 81.302 84.3078C82.5665 85.0203 83.5714 86.0124 84.3102 87.2776C85.0489 88.5428 85.415 89.9678 85.415 91.5526C85.415 93.1507 85.0489 94.589 84.3102 95.8542C83.5714 97.1193 82.5665 98.1115 81.2953 98.824C80.0241 99.5365 78.6265 99.8961 77.1024 99.8961C75.5783 99.8961 74.1807 99.5431 72.9029 98.824ZM79.6847 96.3203C80.4301 95.8741 81.0158 95.2415 81.4351 94.4225C81.8544 93.5968 82.0673 92.6446 82.0673 91.5526C82.0673 90.4672 81.861 89.515 81.4351 88.6959C81.0158 87.8769 80.4368 87.2576 79.6847 86.8182C78.9393 86.3853 78.0741 86.1656 77.0958 86.1656C76.1174 86.1656 75.2522 86.3853 74.5002 86.8182C73.7481 87.251 73.1624 87.8769 72.7432 88.6959C72.3239 89.515 72.1109 90.4672 72.1109 91.5526C72.1109 92.638 72.3239 93.5968 72.7432 94.4225C73.1624 95.2482 73.7481 95.8808 74.5002 96.3203C75.2522 96.7664 76.1174 96.9861 77.0958 96.9861C78.0808 96.9861 78.9393 96.7664 79.6847 96.3203Z" fill="#333333"/>
<path d="M105.574 83.4621V99.7362H104.975C103.504 99.7362 102.313 98.5443 102.313 97.0727V89.1554L97.9536 99.7362H95.4845L91.1052 89.1554V97.0727C91.1052 98.5443 89.9139 99.7362 88.4431 99.7362H87.8441V83.4621H89.7941C90.859 83.4621 91.824 84.0947 92.2433 85.0802L96.7224 95.5612L101.201 85.0802C101.621 84.1014 102.586 83.4621 103.651 83.4621H105.574V83.4621Z" fill="#333333"/>
<path d="M2.39587 106.086H2.89503V108.011H5.04471V106.086H5.54386V110.195H5.04471V108.477H2.89503V110.195H2.39587V106.086Z" fill="#333333"/>
<path d="M10.7284 109.729V110.195H8.0929V106.086H10.6086V106.553H8.5987V107.931H10.2492V108.397H8.5987V109.742H10.7284V109.729ZM8.94478 105.627H8.47225L9.14444 104.801H9.57704L10.2692 105.627H9.79001L9.37073 105.108H9.35742L8.94478 105.627ZM9.75674 111.167C9.75674 111.354 9.61032 111.5 9.42397 111.5C9.23762 111.5 9.0912 111.354 9.0912 111.167C9.0912 110.987 9.23762 110.841 9.42397 110.841C9.61697 110.841 9.75674 110.987 9.75674 111.167Z" fill="#333333"/>
<path d="M17.2374 108.364L16.645 109.056V110.195H16.1459V106.086H16.645V108.344H16.6583L18.5218 106.086H19.1674L17.5768 107.958L19.2073 110.195H18.5751L17.2374 108.364V108.364Z" fill="#333333"/>
<path d="M21.4103 106.086H21.9094V108.011H24.0591V106.086H24.5583V110.195H24.0591V108.477H21.9094V110.195H21.4103V106.086Z" fill="#333333"/>
<path d="M27.054 108.524V106.086H27.5531V108.49C27.5531 109.249 27.9724 109.755 28.6379 109.755C29.2768 109.755 29.7294 109.289 29.7294 108.49V106.086H30.2286V108.524C30.2286 109.582 29.6096 110.235 28.6313 110.235C27.6995 110.235 27.054 109.609 27.054 108.524Z" fill="#333333"/>
<path d="M35.5995 106.086L34.1952 108.357V110.195H33.696V108.357L32.3051 106.086H32.8841L33.9423 107.858H33.9556L35.0204 106.086H35.5995Z" fill="#333333"/>
<path d="M38.2283 109.729H40.3581V110.195H37.7225V106.086H40.2383V106.553H38.2283V107.931H39.8789V108.397H38.2283V109.729ZM38.5744 105.747H38.1019L38.7741 104.921H39.2067L39.8988 105.747H39.4197L39.0004 105.227H38.9871L38.5744 105.747ZM40.1517 105.52H39.7724L40.4512 104.701H40.977L40.1517 105.52Z" fill="#333333"/>
<path d="M46.0019 106.086V110.195H45.4894L43.1867 106.952H43.1733V110.195H42.6742V106.086H43.1733L45.4894 109.363H45.5027V106.086H46.0019Z" fill="#333333"/>
<path d="M54.9733 106.086V110.195H54.4609L52.1581 106.952H52.1448V110.195H51.6456V106.086H52.1448L54.4609 109.363H54.4742V106.086H54.9733Z" fill="#333333"/>
<path d="M60.9831 108.077V109.702C60.5971 110.028 60.0181 110.228 59.3858 110.228C58.2078 110.228 57.3359 109.422 57.3359 108.151C57.3359 106.932 58.1346 106.053 59.3658 106.053C59.9249 106.053 60.4972 106.24 60.9298 106.699L60.5704 107.012C60.2443 106.692 59.8384 106.539 59.3592 106.539C58.494 106.539 57.8551 107.172 57.8551 108.157C57.8551 109.083 58.4607 109.762 59.3791 109.762C59.7918 109.762 60.1645 109.675 60.4773 109.449V108.55H59.286V108.084H60.9831V108.077Z" fill="#333333"/>
<path d="M63.4323 106.086H63.9314V108.011H66.0811V106.086H66.5802V110.195H66.0811V108.477H63.9314V110.195H63.4323V106.086Z" fill="#333333"/>
<path d="M69.7282 111.167C69.7282 111.354 69.5817 111.5 69.3954 111.5C69.209 111.5 69.0626 111.354 69.0626 111.167C69.0626 110.987 69.209 110.841 69.3954 110.841C69.5884 110.841 69.7282 110.987 69.7282 111.167ZM69.1625 106.086H69.6683V110.195H69.1625V106.086Z" fill="#333333"/>
<path d="M78.5465 106.086L77.0025 110.195H76.5499L75.0059 106.086H75.5516L76.7762 109.469H76.7828L78.0141 106.086H78.5465Z" fill="#333333"/>
<path d="M80.7628 106.086H81.2686V110.195H80.7628V106.086Z" fill="#333333"/>
<path d="M83.8442 106.086H86.36V106.553H84.35V107.931H86.0006V108.397H84.35V109.742H86.4798V110.208H83.8442V106.086Z" fill="#333333"/>
<path d="M89.6943 106.546H88.463V106.08H91.438V106.546H90.1934V110.195H89.6943V106.546Z" fill="#333333"/>
<path d="M94.5527 106.546H93.3281V106.08H96.3031V106.546H95.0585V110.195H94.5594V106.546H94.5527Z" fill="#333333"/>
<path d="M98.506 106.086H101.022V106.553H99.0118V107.931H100.662V108.397H99.0118V109.742H101.142V110.208H98.506V106.086V106.086Z" fill="#333333"/>
<path d="M103.464 106.086H103.963V109.735H105.993V110.202H103.458V106.086H103.464Z" fill="#333333"/>
<path d="M61.0297 69.6517L95.591 35.0725H78.7197L61.0297 52.7717C56.371 57.4328 56.371 64.9906 61.0297 69.6517Z" fill="url(#paint0_linear_4304_35626)"/>
<path d="M61.0297 0.5C56.371 5.16117 56.371 12.7189 61.0297 17.3801L78.7197 35.0792C83.3784 39.7404 83.3784 47.2981 78.7197 51.9593L95.591 35.0792L61.0297 0.5Z" fill="url(#paint1_linear_4304_35626)"/>
<path d="M46.6674 0.5L12.1061 35.0792H28.9774L46.6674 17.3801C51.3261 12.7189 51.3261 5.16117 46.6674 0.5Z" fill="url(#paint2_linear_4304_35626)"/>
<path d="M46.6674 69.6517C51.3261 64.9906 51.3261 57.4328 46.6674 52.7717L28.9774 35.0792C24.3187 30.418 24.3187 22.8603 28.9774 18.1991L12.1061 35.0792L46.6674 69.6517Z" fill="url(#paint3_linear_4304_35626)"/>
<path d="M53.8486 43.6957L45.2366 35.0792L53.8486 26.456L62.4607 35.0792L53.8486 43.6957Z" fill="url(#paint4_linear_4304_35626)"/>
</g>
<defs>
<linearGradient id="paint0_linear_4304_35626" x1="58.4199" y1="67.3673" x2="81.2507" y2="40.4472" gradientUnits="userSpaceOnUse">
<stop offset="0.3661" stop-color="#6680FE"/>
<stop offset="0.4727" stop-color="#5D81FA"/>
<stop offset="0.65" stop-color="#4383F1"/>
<stop offset="0.8747" stop-color="#1A86E2"/>
<stop offset="1" stop-color="#0088D8"/>
</linearGradient>
<linearGradient id="paint1_linear_4304_35626" x1="75.7319" y1="49.7655" x2="77.0945" y2="4.0075" gradientUnits="userSpaceOnUse">
<stop stop-color="#BE9DFF"/>
<stop offset="1" stop-color="#3B71FE"/>
</linearGradient>
<linearGradient id="paint2_linear_4304_35626" x1="47.5973" y1="4.7629" x2="24.7665" y2="31.6831" gradientUnits="userSpaceOnUse">
<stop offset="0.3661" stop-color="#6680FE"/>
<stop offset="0.4727" stop-color="#5D81FA"/>
<stop offset="0.65" stop-color="#4383F1"/>
<stop offset="0.8747" stop-color="#1A86E2"/>
<stop offset="1" stop-color="#0088D8"/>
</linearGradient>
<linearGradient id="paint3_linear_4304_35626" x1="31.9607" y1="20.3872" x2="30.5982" y2="66.1452" gradientUnits="userSpaceOnUse">
<stop stop-color="#BE9DFF"/>
<stop offset="1" stop-color="#3B71FE"/>
</linearGradient>
<linearGradient id="paint4_linear_4304_35626" x1="53.9297" y1="26.7623" x2="53.7597" y2="43.6785" gradientUnits="userSpaceOnUse">
<stop stop-color="#F0AFFE"/>
<stop offset="0.6469" stop-color="#8A70FF"/>
<stop offset="1" stop-color="#2732F0"/>
</linearGradient>
<clipPath id="clip0_4304_35626">
<rect width="106" height="113" fill="white" transform="translate(0 0.5)"/>
</clipPath>
</defs>
</svg>
