<svg width="27" height="19" viewBox="0 0 27 19" fill="none" xmlns="http://www.w3.org/2000/svg">
<rect x="0.622506" y="0.553903" width="25.6811" height="17.899" rx="2.72375" fill="#FCFCFD"/>
<path fill-rule="evenodd" clip-rule="evenodd" d="M13.6031 13.2616C12.6816 14.0384 11.4863 14.5073 10.1802 14.5073C7.26584 14.5073 4.90332 12.1729 4.90332 9.29327C4.90332 6.41363 7.26584 4.07922 10.1802 4.07922C11.4863 4.07922 12.6816 4.54814 13.6031 5.32489C14.5245 4.54814 15.7199 4.07922 17.026 4.07922C19.9403 4.07922 22.3029 6.41363 22.3029 9.29327C22.3029 12.1729 19.9403 14.5073 17.026 14.5073C15.7199 14.5073 14.5245 14.0384 13.6031 13.2616Z" fill="#ED0006"/>
<path fill-rule="evenodd" clip-rule="evenodd" d="M13.6016 13.262C14.7363 12.3056 15.4558 10.8825 15.4558 9.29327C15.4558 7.70406 14.7363 6.28092 13.6016 5.32457C14.523 4.54801 15.7181 4.07922 17.0241 4.07922C19.9384 4.07922 22.301 6.41363 22.301 9.29327C22.301 12.1729 19.9384 14.5073 17.0241 14.5073C15.7181 14.5073 14.523 14.0385 13.6016 13.262Z" fill="#F9A000"/>
<path fill-rule="evenodd" clip-rule="evenodd" d="M13.6029 13.2616C14.7374 12.3052 15.4568 10.8822 15.4568 9.29321C15.4568 7.70418 14.7374 6.28118 13.6029 5.32483C12.4684 6.28118 11.749 7.70418 11.749 9.29321C11.749 10.8822 12.4684 12.3052 13.6029 13.2616Z" fill="#FF5E00"/>
<rect x="0.622506" y="0.553903" width="25.6811" height="17.899" rx="2.72375" stroke="#F2F4F7" stroke-width="0.778215"/>
</svg>
